<?xml version="1.0" encoding="UTF-8"?>
<svg version="1.1" xmlns="http://www.w3.org/2000/svg" width="1024" height="419">
<path d="M0 0 C28.194375 -0.020625 56.38875 -0.04125 85.4375 -0.0625 C94.35579834 -0.071604 103.27409668 -0.08070801 112.46264648 -0.09008789 C123.31262207 -0.09460449 123.31262207 -0.09460449 128.38417053 -0.09544373 C131.94329953 -0.09637929 135.50241377 -0.10014225 139.0615387 -0.10557556 C143.59256806 -0.11240163 148.12357577 -0.11449732 152.6546098 -0.11307228 C154.32302888 -0.11337054 155.99144867 -0.11537289 157.65986335 -0.11921513 C159.90257829 -0.12414259 162.14520755 -0.12300713 164.38792419 -0.12025452 C165.6480152 -0.12117631 166.90810621 -0.1220981 168.2063818 -0.12304783 C171 0 171 0 172 1 C172.1238634 3.0854182 172.17799067 5.17500141 172.20532227 7.26391602 C172.21522186 7.91755127 172.22512146 8.57118652 172.23532104 9.24462891 C172.26701634 11.41435064 172.29172492 13.5840943 172.31640625 15.75390625 C172.33696887 17.25463952 172.35796515 18.7553669 172.37937927 20.25608826 C172.43467155 24.21311693 172.48404911 28.17019849 172.53222656 32.12731934 C172.5823895 36.1624016 172.63810268 40.19740672 172.69335938 44.23242188 C172.8010284 52.15488277 172.90245379 60.07740804 173 68 C173.94391602 67.18813232 174.88783203 66.37626465 175.86035156 65.53979492 C177.12041035 64.45748186 178.38050331 63.37520858 179.640625 62.29296875 C180.26018066 61.75990112 180.87973633 61.2268335 181.51806641 60.6776123 C185.21950416 57.50026117 188.95533776 54.37792995 192.75 51.3125 C196.20427047 48.51187605 199.53789895 45.63337332 202.8125 42.625 C206.63842988 39.13700714 210.59563524 35.91380127 214.6875 32.75 C219.73001337 28.84469922 224.62904498 24.81535969 229.4375 20.625 C230.05101318 20.09076416 230.66452637 19.55652832 231.29663086 19.00610352 C234.60469247 16.11581146 237.89426403 13.20553134 241.17578125 10.28515625 C241.85777588 9.68300293 242.53977051 9.08084961 243.24243164 8.46044922 C244.55588244 7.3004979 245.86391457 6.13437447 247.16577148 4.96142578 C251.66214329 1 251.66214329 1 255 1 C255 59.74 255 118.48 255 179 C251.31400184 178.07850046 250.40132994 177.78552867 247.78515625 175.4453125 C246.88845215 174.65411011 246.88845215 174.65411011 245.97363281 173.84692383 C245.34295898 173.27868896 244.71228516 172.7104541 244.0625 172.125 C242.72584655 170.94334707 241.38859528 169.76237006 240.05078125 168.58203125 C239.37740723 167.98471191 238.7040332 167.38739258 238.01025391 166.77197266 C234.9562416 164.07996132 231.85799128 161.44182404 228.75 158.8125 C228.21383057 158.35568848 227.67766113 157.89887695 227.12524414 157.42822266 C224.8119625 155.46925425 222.52668224 153.68445482 220 152 C220 151.34 220 150.68 220 150 C219.401875 149.71125 218.80375 149.4225 218.1875 149.125 C216 148 216 148 213 146 C213 145.34 213 144.68 213 144 C212.44441406 143.7525 211.88882813 143.505 211.31640625 143.25 C203.25785453 138.90137175 196.47822439 131.65813737 189.78125 125.5 C184.44844053 120.7064634 178.97138738 115.98092492 173 112 C172.67 134.11 172.34 156.22 172 179 C164.6575 179.165 157.315 179.33 149.75 179.5 C147.47834961 179.55220703 145.20669922 179.60441406 142.86621094 179.65820312 C140.98894512 179.6998017 139.11166668 179.74083548 137.234375 179.78125 C136.22091003 179.80320435 135.20744507 179.82515869 134.16326904 179.84777832 C126.50886773 180.00070175 118.85900713 180.03295775 111.20355225 179.93762207 C107.03123512 179.86183155 107.03123512 179.86183155 102.94403076 180.56750488 C101 181 101 181 98 180 C96.53288081 179.90877572 95.06199283 179.87210348 93.59204102 179.87060547 C92.70424454 179.86745331 91.81644806 179.86430115 90.90174866 179.86105347 C89.94546066 179.8630777 88.98917267 179.86510193 88.00390625 179.8671875 C87.01881577 179.86623077 86.03372528 179.86527405 85.01878357 179.86428833 C82.93496639 179.86360769 80.85114709 179.86545389 78.76733398 179.86962891 C75.57856473 179.87497308 72.3899367 179.86968291 69.20117188 179.86328125 C67.17708302 179.86394216 65.15299426 179.8652236 63.12890625 179.8671875 C62.17464249 179.86516327 61.22037872 179.86313904 60.23719788 179.86105347 C59.34624924 179.86420563 58.4553006 179.86735779 57.53735352 179.87060547 C56.75586441 179.87140106 55.97437531 179.87219666 55.16920471 179.87301636 C52.98799656 179.92603611 52.98799656 179.92603611 50.90391541 180.57058716 C49 181 49 181 46 180 C23.23 179.505 23.23 179.505 0 179 C0 119.93 0 60.86 0 0 Z " fill="#DEC46A" transform="translate(45,120)"/>
<path d="M0 0 C90.27835052 0 90.27835052 0 103.03125 11.89453125 C117.24095614 26.62343819 120.48915107 46.15932922 120.203125 65.859375 C119.68859668 82.88900741 113.29701014 99.86479262 101 112 C98.12857875 114.259558 95.16323895 116.17783004 92 118 C90.989375 118.61875 89.97875 119.2375 88.9375 119.875 C88.298125 120.24625 87.65875 120.6175 87 121 C87.47308594 121.391875 87.94617188 121.78375 88.43359375 122.1875 C96.73871813 129.6993474 101.28963064 139.59880403 106.25390625 149.46484375 C113.45746862 164.23454753 113.45746862 164.23454753 126.0625 174.125 C127.031875 174.41375 128.00125 174.7025 129 175 C129 177.64 129 180.28 129 183 C123.15282944 183.10828094 120.30708061 181.86128235 115.875 178 C108.6006558 170.91416777 104.39292057 162.94773535 99.95825195 153.94848633 C94.15431708 142.18158572 88.11562647 131.05781324 76 125 C75.67 143.48 75.34 161.96 75 181 C50.25 181 25.5 181 0 181 C0 121.27 0 61.54 0 0 Z M75 8 C75 43.64 75 79.28 75 116 C87.85667147 113.1429619 95.92976184 108.34994983 103.7578125 97.58203125 C113.40843791 82.33016345 116.23647244 64.5201307 112.8125 46.875 C109.37434257 32.59465307 103.13440834 20.68994734 91 12 C85.19581447 8.61171898 81.99807108 8 75 8 Z " fill="#DFC56A" transform="translate(683,120)"/>
<path d="M0 0 C3.68258769 1.47303507 5.94808907 2.48495565 9.01953125 4.6953125 C9.78225342 5.23816895 10.54497559 5.78102539 11.33081055 6.34033203 C12.14976807 6.92927246 12.96872559 7.51821289 13.8125 8.125 C21.51635654 13.59677772 29.30640416 18.91190183 37.1875 24.125 C44.99257406 29.29445749 52.71284447 34.55488193 60.3371582 39.98706055 C65.07235176 43.35843507 69.87049138 46.61490926 74.72265625 49.81640625 C79.69500446 53.12932955 84.61507937 56.51819157 89.53662109 59.90600586 C96.97581986 65.01494019 104.48797403 69.99198269 112 75 C112.33 51.57 112.66 28.14 113 4 C115.31 4 117.62 4 120 4 C120 64.72 120 125.44 120 188 C115.75519247 186.30207699 112.77438985 184.6535262 109.0546875 182.10546875 C108.49195129 181.72193741 107.92921509 181.33840607 107.34942627 180.94325256 C105.52148978 179.69584163 103.69825051 178.44174771 101.875 177.1875 C100.6029973 176.31760163 99.33069665 175.4481388 98.05810547 174.57910156 C94.92797129 172.44012417 91.80140884 170.29599643 88.67602539 168.15008545 C86.35383458 166.55660251 84.02864584 164.96752424 81.703125 163.37890625 C78.67431428 161.30942445 75.64699499 159.23779601 72.62109375 157.1640625 C66.55751384 153.00999329 60.48365492 148.87100888 54.40966797 144.73217773 C49.72022006 141.53676773 45.03217182 138.33935644 40.34765625 135.13671875 C39.40962158 134.49589355 38.47158691 133.85506836 37.50512695 133.19482422 C35.76483545 132.00584349 34.02502491 130.81615819 32.28588867 129.62548828 C23.57223968 123.67507884 14.78157767 117.85438511 6 112 C6 136.09 6 160.18 6 185 C4.02 185 2.04 185 0 185 C0 123.95 0 62.9 0 0 Z " fill="#DFC56A" transform="translate(407,116)"/>
<path d="M0 0 C24.75 0 49.5 0 75 0 C75 59.73 75 119.46 75 181 C50.25 181 25.5 181 0 181 C0 121.27 0 61.54 0 0 Z " fill="#DFC56A" transform="translate(317,120)"/>
<path d="M0 0 C19.87257055 15.16516732 30.72942626 39.14335722 34.42944336 63.42114258 C38.26723279 92.84614346 34.1934073 125.90343978 15.69140625 150.1015625 C14.55718431 151.44478713 13.41177346 152.77866594 12.25390625 154.1015625 C11.72410156 154.77316406 11.19429687 155.44476563 10.6484375 156.13671875 C1.82350168 167.01591516 -11.63725098 175.55538795 -25.74609375 177.1015625 C-42.08589217 178.13084114 -55.82992119 175.17419914 -68.37963867 164.26123047 C-83.17889853 150.83610456 -92.54390048 134.31907644 -97.74609375 115.1015625 C-98.06449219 113.99039063 -98.38289062 112.87921875 -98.7109375 111.734375 C-106.10673553 80.58341003 -100.43341957 46.1964171 -83.74609375 19.1015625 C-81.26405691 15.58575981 -78.60637766 12.31524056 -75.74609375 9.1015625 C-74.80636719 8.03808594 -74.80636719 8.03808594 -73.84765625 6.953125 C-53.70378877 -14.50626036 -23.71622807 -16.39557161 0 0 Z M-30.74609375 -2.8984375 C-30.74609375 53.8615625 -30.74609375 110.6215625 -30.74609375 169.1015625 C-12.74746369 165.82908431 0.75770643 158.76458979 11.36669922 143.50048828 C20.31117804 130.14565009 25.5702635 115.94306561 28.25390625 100.1015625 C28.45113281 98.95880859 28.45113281 98.95880859 28.65234375 97.79296875 C32.39598599 71.03098573 25.74136707 43.00351934 10.09375 21.07421875 C-0.54031639 7.40184767 -13.53969292 -0.7476374 -30.74609375 -2.8984375 Z " fill="#DFC56A" transform="translate(637.74609375,126.8984375)"/>
<path d="M0 0 C0.66 0 1.32 0 2 0 C2.40613525 1.09836182 2.81227051 2.19672363 3.23071289 3.32836914 C10.52777624 23.0511495 17.8576261 42.75890091 25.4375 62.375 C31.48205491 78.01991859 37.43901068 93.6961795 43.35180664 109.39135742 C47.27740606 119.80854329 51.22275731 130.21780702 55.1953125 140.6171875 C56.06741876 142.90257418 56.93948933 145.18797447 57.81152344 147.47338867 C59.08097015 150.80008933 60.35155059 154.12633054 61.62609863 157.45108032 C62.80334991 160.52218728 63.97626654 163.59491985 65.1484375 166.66796875 C65.49456085 167.56712006 65.8406842 168.46627136 66.19729614 169.39266968 C66.52325775 170.2494632 66.84921936 171.10625671 67.18505859 171.98901367 C67.46465424 172.71932297 67.74424988 173.44963226 68.03231812 174.20207214 C69.49216732 178.42303859 70.71662194 182.72207314 72 187 C49.89 187 27.78 187 5 187 C-1 171 -1 171 -1 169 C-19.48 169 -37.96 169 -57 169 C-57.99 172.3 -58.98 175.6 -60 179 C-60.85629778 181.22396213 -61.74567245 183.43588732 -62.6875 185.625 C-63.12449219 186.64851562 -63.56148437 187.67203125 -64.01171875 188.7265625 C-64.33785156 189.47679687 -64.66398438 190.22703125 -65 191 C-67 190 -69 189 -71 188 C-69.04178745 181.15059547 -66.77579597 174.4910387 -64.21875 167.84375 C-63.85322021 166.88480835 -63.48769043 165.9258667 -63.11108398 164.93786621 C-61.91062684 161.79066394 -60.70528526 158.64535603 -59.5 155.5 C-58.64741183 153.26707009 -57.79520525 151.03399445 -56.94335938 148.80078125 C-55.17465301 144.1647993 -53.404312 139.52944658 -51.6328125 134.89453125 C-47.96487585 125.29411745 -44.31696511 115.68610859 -40.66891479 106.078125 C-39.10274263 101.9538948 -37.53543421 97.8300968 -35.96812439 93.70629883 C-32.71289074 85.14133977 -29.45899041 76.5758758 -26.20678711 68.00976562 C-10.72647292 27.23553825 -10.72647292 27.23553825 -4.875 12 C-4.47917725 10.96810547 -4.08335449 9.93621094 -3.67553711 8.87304688 C-3.32628174 7.96619141 -2.97702637 7.05933594 -2.6171875 6.125 C-2.32440918 5.36445312 -2.03163086 4.60390625 -1.72998047 3.8203125 C-1 2 -1 2 0 0 Z M-30 97 C-30.4125 98.10174561 -30.825 99.20349121 -31.25 100.33862305 C-32.8180278 104.5261519 -34.38677236 108.71341193 -35.95578003 112.90057373 C-36.64971099 114.75261112 -37.34349854 116.60470226 -38.03713989 118.45684814 C-46.53616499 141.14847107 -46.53616499 141.14847107 -50.91601562 152.38549805 C-52.45415364 156.0842874 -52.45415364 156.0842874 -53 160 C-37.16 160 -21.32 160 -5 160 C-7.34781378 152.07775647 -7.34781378 152.07775647 -10.03710938 144.32250977 C-10.5928363 142.83661095 -10.5928363 142.83661095 -11.15979004 141.32069397 C-11.55049683 140.28802902 -11.94120361 139.25536407 -12.34375 138.19140625 C-12.75411499 137.1028685 -13.16447998 136.01433075 -13.58728027 134.89280701 C-14.449388 132.61053112 -15.31338832 130.32896932 -16.17919922 128.0480957 C-17.50418614 124.55145278 -18.81668845 121.05027977 -20.12890625 117.54882812 C-20.97059378 115.32523286 -21.81301572 113.10191542 -22.65625 110.87890625 C-23.04695679 109.83207169 -23.43766357 108.78523712 -23.84020996 107.7066803 C-24.21069458 106.73814621 -24.5811792 105.76961212 -24.96289062 104.77172852 C-25.44562439 103.4945974 -25.44562439 103.4945974 -25.93811035 102.19166565 C-27.02058188 99.95752045 -28.14417615 98.62475356 -30 97 Z " fill="#DFC56A" transform="translate(888,114)"/>
<path d="" fill="#CBCBCB" transform="translate(0,0)"/>
<path d="" fill="#CBCBCB" transform="translate(0,0)"/>
</svg>
